PathFileType	4	(X/Y/Z)	/Users/niels/Desktop/University/Third Semester/Perception and Action/Exam/Gymnastics Motion Tracking/Code for Gym Tracking/Scripts/Analyzed Data/Start Salto/st_salto_bad_id5_1_Sports2D/st_salto_bad_id5_1_Sports2D_px_person00.trc
DataRate	CameraRate	NumFrames	NumMarkers	Units	OrigDataRate	OrigDataStartFrame	OrigNumFrames
29.886363636363633	29.886363636363633	8	22	m	29.886363636363633	66	264
Frame#	Time	Hip			RHip			RKnee			RAnkle			RBigToe			RSmallToe			RHeel			LHip			LKnee			LAnkle			LBigToe			LSmallToe			LHeel			Neck			Head			Nose			RShoulder			RElbow			RWrist			LShoulder			LElbow			LWrist		
		X1	Y1	Z1	X2	Y2	Z2	X3	Y3	Z3	X4	Y4	Z4	X5	Y5	Z5	X6	Y6	Z6	X7	Y7	Z7	X8	Y8	Z8	X9	Y9	Z9	X10	Y10	Z10	X11	Y11	Z11	X12	Y12	Z12	X13	Y13	Z13	X14	Y14	Z14	X15	Y15	Z15	X16	Y16	Z16	X17	Y17	Z17	X18	Y18	Z18	X19	Y19	Z19	X20	Y20	Z20	X21	Y21	Z21	X22	Y22	Z22
66	2.2083650190114072	0.19598601119736356	-0.47678218126996064	0.0	0.17368207157963061	-0.4901020400217569	0.0	0.30351746342806185	-0.57356813432459	0.0	0.310191470011022	-0.7193506865841928	0.0	0.3702808858905392	-0.7341624554033773	0.0	0.3536652216658744	-0.7417025988809283	0.0	0.29818059683585646	-0.7363670329778681	0.0	0.2238401866568539	-0.4836061391024054	0.0	0.33158972106589396	-0.5660852104152296	0.0	0.36282641438190655	-0.7026088738628925	0.0	0.4208749172672104	-0.7076069098800687	0.0	0.41552392834872215	-0.7013106947486809	0.0	0.35534661211486207	-0.7179600617406936	0.0	0.26485862710512514	-0.3028552190195214	0.0	0.3215432489446468	-0.24211007470334292	0.0	0.3139851362880501	-0.290993502973165	0.0	0.22243315299640923	-0.30744406705838967	0.0	0.27758722162519417	-0.27050001461593026	0.0	0.34201838005282714	-0.20268777385645875	0.0	0.29204688136687657	-0.321915731869825	0.0	0.3657216628693338	-0.2936614815378989	0.0	0.39437743558153115	-0.2226911046510886	0.0
67	2.2418250950570346	0.20840754578772172	-0.48002895997071215	0.0	0.18624836770516456	-0.49340915225258936	0.0	0.31339450863124757	-0.5784884735530839	0.0	0.3300280384546643	-0.7241978395916451	0.0	0.39287862956119496	-0.7368756321798027	0.0	0.37827036836520234	-0.744958065324653	0.0	0.3194450042747037	-0.7416458353574256	0.0	0.23631697980745278	-0.4869996355177154	0.0	0.34313894952327434	-0.5709216280701055	0.0	0.3799905562477602	-0.7069300305539815	0.0	0.4370466063131323	-0.7084243851219175	0.0	0.431690669788943	-0.7029189391329776	0.0	0.37342873702687435	-0.723446213080374	0.0	0.2780087820219343	-0.3065431912133611	0.0	0.33462636798545087	-0.24442501342777506	0.0	0.32791590702449736	-0.2933946232765116	0.0	0.23509361165500436	-0.310951826499657	0.0	0.29096842570957865	-0.2752172947172793	0.0	0.35609372480185575	-0.2068077567002223	0.0	0.30503955722268167	-0.3256940741117379	0.0	0.3789207895691222	-0.29823962239282154	0.0	0.4053139718744093	-0.2263666041870145	0.0
68	2.275285171102662	0.2210118884006432	-0.48352623274473916	0.0	0.1990391163381687	-0.49684596968005357	0.0	0.32315148566602614	-0.5840013907081267	0.0	0.349340264466153	-0.7291449925459873	0.0	0.4144747836594924	-0.7396217777027058	0.0	0.40140814512357353	-0.7481927845843274	0.0	0.34028812393477376	-0.7468480275414244	0.0	0.2489978911253471	-0.49046875020531816	0.0	0.35473214319346275	-0.5758985314581961	0.0	0.3964490686929731	-0.7112315919585209	0.0	0.45218779050516833	-0.7100844972842079	0.0	0.44687234630507916	-0.7053088422162048	0.0	0.390645854601125	-0.7290117662990704	0.0	0.2910937116049914	-0.3100958035279269	0.0	0.3480009946165638	-0.24695248741558545	0.0	0.341892136170483	-0.2960094388880159	0.0	0.24798283999540813	-0.31435637369537783	0.0	0.30474982845837717	-0.2798641835351071	0.0	0.370094537223924	-0.21092094153620072	0.0	0.3181975462769762	-0.3294005573535987	0.0	0.39196407057449084	-0.3029928921679617	0.0	0.41573482873081163	-0.2303389639568643	0.0
69	2.3087452471482894	0.2338362679563214	-0.48734489008230436	0.0	0.21218378957354725	-0.5005289964259066	0.0	0.33323229197036763	-0.5901709869773553	0.0	0.3681448030711609	-0.734189870798306	0.0	0.4351007149458948	-0.7424788458283366	0.0	0.42290773565638773	-0.7515240224867515	0.0	0.36056465360942647	-0.7520295337083667	0.0	0.2618770593260089	-0.49409690506205356	0.0	0.3664873506598102	-0.5811442733614061	0.0	0.41230598481448627	-0.7156234665090995	0.0	0.46677509702884423	-0.712786793305603	0.0	0.4616359821563239	-0.7085829310783583	0.0	0.4071135886816898	-0.7345964111023545	0.0	0.3042914723402756	-0.31353307391838786	0.0	0.3615282350350531	-0.24977742539126893	0.0	0.35597165552094395	-0.298869545728002	0.0	0.2613977444925638	-0.31769684315580926	0.0	0.3191268384966967	-0.28444472390512454	0.0	0.3838897527924856	-0.21514708047093375	0.0	0.33162435864400325	-0.333228713418103	0.0	0.4049853704908198	-0.3079476474790675	0.0	0.42576876758193544	-0.23465949464702865	0.0
70	2.342205323193917	0.24672677961840947	-0.49144122902056075	0.0	0.22552136442382967	-0.5045050067242519	0.0	0.34383725717876706	-0.5968020710838282	0.0	0.3860516587814901	-0.7392119068516128	0.0	0.45434843739740116	-0.7456095372233423	0.0	0.4424052151262091	-0.7551068520368757	0.0	0.37974676283243297	-0.7571465107508549	0.0	0.27475520331427344	-0.49794943792187824	0.0	0.3783954695914216	-0.5866867033541351	0.0	0.4273142170891419	-0.7201738868764255	0.0	0.4809629779182505	-0.7166300008831289	0.0	0.47611609614411615	-0.7127429461514485	0.0	0.42264165204268056	-0.7400743782160061	0.0	0.3175094663207007	-0.3169455338455103	0.0	0.3748229781626752	-0.25287543935210144	0.0	0.3698532049528198	-0.3019628744265395	0.0	0.27525425131533876	-0.3210020608281782	0.0	0.33391360061080816	-0.28888796828490987	0.0	0.39708607881474184	-0.21951714715037993	0.0	0.34506461961222945	-0.3373042303117043	0.0	0.4178341821171829	-0.3130291792907827	0.0	0.4354029420585889	-0.23933600065307972	0.0
71	2.3756653992395442	0.2594828220444609	-0.49571282054973975	0.0	0.2387477740550557	-0.5087242790951659	0.0	0.35489380302736273	-0.6035456986488145	0.0	0.40250332418568663	-0.7441541512348417	0.0	0.47160718812180247	-0.7491910556478398	0.0	0.45951984551485814	-0.7590651402155713	0.0	0.397190655622189	-0.762172408513823	0.0	0.2873378498416121	-0.5020365911365646	0.0	0.39035252381553726	-0.592415371202172	0.0	0.4410762335708509	-0.7249770058259473	0.0	0.4945558643819707	-0.7215713920430403	0.0	0.4900283386444265	-0.7176944626037821	0.0	0.43689267107790347	-0.7454088237932485	0.0	0.33050244831673115	-0.32042524454689675	0.0	0.3874818203022753	-0.25611292282277065	0.0	0.38311638152623195	-0.3052845065159828	0.0	0.2891263226273843	-0.32433164916428936	0.0	0.348653938867152	-0.2931927857627667	0.0	0.40926338979684	-0.22401394771265823	0.0	0.3580684114530856	-0.34162123204464984	0.0	0.4302099809195396	-0.31805798095157806	0.0	0.44448913928943556	-0.24425595300281988	0.0
72	2.4091254752851716	0.27211167780748846	-0.5001081484922087	0.0	0.2517708102130792	-0.5131352625592863	0.0	0.3663241846529201	-0.6101434154066624	0.0	0.4172768248186011	-0.7491874956936845	0.0	0.48662711205563386	-0.7534598620825073	0.0	0.47429429103502113	-0.763589771421683	0.0	0.4126282142060027	-0.7672756870494647	0.0	0.2995267323293149	-0.5063619374161716	0.0	0.4023362780833505	-0.5982336698910741	0.0	0.4534777947586147	-0.7302198332698188	0.0	0.5072870766996329	-0.7275402378260555	0.0	0.5030423812705634	-0.7234242162465367	0.0	0.4497670954947939	-0.75080095895856	0.0	0.3431624363845024	-0.3240325601883637	0.0	0.39955917379086725	-0.25937414248364704	0.0	0.39562320480416513	-0.3089214153589681	0.0	0.302644563943973	-0.327762667258213	0.0	0.36297832546875175	-0.2975319932394009	0.0	0.4203008549523331	-0.2286447583132377	0.0	0.3703767322707976	-0.34611163368387987	0.0	0.4419797763111195	-0.3229192710826874	0.0	0.4528630197131106	-0.2492669543162403	0.0
73	2.442585551330799	0.2848944962233791	-0.5046594142222973	0.0	0.2648899306872067	-0.5177430206604282	0.0	0.37824098788369964	-0.6165980579595064	0.0	0.4306829754629262	-0.7546734627324161	0.0	0.49977164114529055	-0.7587712779893131	0.0	0.4872958509063648	-0.769020954154197	0.0	0.42633226705855354	-0.7728269821265821	0.0	0.3115800358295828	-0.5109575451765482	0.0	0.41448979308288636	-0.6042201650110601	0.0	0.4648644318665725	-0.736131932414759	0.0	0.5191484108858465	-0.734609819991028	0.0	0.5151522840507828	-0.7301448568371649	0.0	0.4615613471854278	-0.7566253179581409	0.0	0.35561095695243167	-0.32783581086969005	0.0	0.411678085693577	-0.2627545351550113	0.0	0.4076313539474064	-0.31310175661675266	0.0	0.3158545964581187	-0.33136323002361057	0.0	0.3768724082178321	-0.3021940031879946	0.0	0.4304003094476555	-0.23348390311049122	0.0	0.3821021107261062	-0.35076264701939525	0.0	0.4533142612981849	-0.32765929100017605	0.0	0.4604525539268887	-0.2543060255300473	0.0
